<svg width="1154" height="1282" viewBox="0 0 1154 1282" fill="none" xmlns="http://www.w3.org/2000/svg">
<path d="M173.776 876.791C129.963 824.217 112.439 756.308 127.773 681.827C145.298 585.441 215.397 486.864 318.355 412.383C370.93 372.952 430.076 344.474 493.604 322.568C522.082 313.806 548.369 305.043 576.847 300.662L782.764 173.607C754.286 169.226 723.617 167.035 690.758 167.035C364.358 167.035 57.6735 392.668 7.28956 659.921C-27.7601 839.551 66.4359 990.703 228.541 1065.18L346.833 977.559C274.543 960.034 215.397 924.985 175.966 876.791" fill="#E65D0F"/>
<path d="M774.015 789.151L307.416 517.516L294.273 589.806C294.273 596.377 294.273 602.949 294.273 607.33V616.093C294.273 633.618 298.654 653.333 307.416 668.667C318.369 686.192 331.513 703.717 351.228 714.67L570.289 841.725L410.375 962.208L381.897 984.115L259.223 1076.12L235.126 1093.64L31.3999 1246.99C22.6375 1253.56 22.6375 1266.7 31.3999 1275.47C40.1624 1284.23 46.7342 1282.04 53.306 1275.47L309.607 1117.74L342.466 1098.03L524.286 986.305L579.051 953.446L782.777 826.391C789.349 822.01 793.73 815.438 793.73 808.866C793.73 802.294 791.54 791.341 782.777 784.769" fill="#E65D0F"/>
<path d="M986.502 412.408C1030.31 471.555 1043.46 546.035 1019.36 627.088C993.074 721.284 920.784 813.289 817.826 881.198C745.536 929.391 662.293 964.441 579.05 979.775L373.133 1106.83C401.611 1111.21 432.279 1113.4 462.948 1113.4C763.061 1113.4 1063.17 914.057 1137.65 659.947C1192.42 467.174 1104.8 296.306 927.356 215.254L809.063 302.878C885.734 322.594 947.071 359.834 986.502 410.218" fill="#010156"/>
<path d="M1122.3 4.92886C1115.73 -1.64295 1106.97 -1.64295 1100.39 4.92886L844.092 162.652L811.233 182.368L629.413 294.089L574.648 326.948L368.731 454.003C368.731 454.003 364.35 456.194 364.35 458.384L359.969 462.765V469.337C359.969 475.909 359.969 484.671 364.35 489.053C364.35 491.243 368.731 493.434 370.922 495.625L837.521 767.26L850.664 694.97C850.664 688.398 852.855 681.826 852.855 677.445C852.855 653.348 848.474 629.251 835.33 607.345C830.949 600.774 824.377 592.011 817.805 585.439C811.233 578.867 804.662 574.486 795.899 567.914L576.839 440.859L736.753 320.376L765.231 298.47L815.615 261.23L890.095 206.465L914.192 188.94L1117.92 35.5973C1126.68 29.0255 1126.68 15.8819 1117.92 7.11947" fill="#010156"/>
</svg>
