<svg width="1154" height="1282" viewBox="0 0 1154 1282" fill="none" xmlns="http://www.w3.org/2000/svg">
<path d="M173.776 877.088C129.963 824.514 112.439 756.605 127.773 682.124C145.298 585.738 215.397 487.16 318.355 412.68C370.93 373.249 430.076 344.771 493.604 322.865C522.082 314.103 548.369 305.34 576.847 300.959L782.764 173.904C754.286 169.523 723.617 167.332 690.758 167.332C364.358 167.332 57.6735 392.964 7.28956 660.218C-27.7601 839.848 66.4359 991 228.541 1065.48L346.833 977.856C274.543 960.331 215.397 925.282 175.966 877.088" fill="white"/>
<path d="M774.014 789.483L307.415 517.848L294.272 590.138C294.272 596.709 292.081 603.281 292.081 607.662C292.081 609.853 292.081 614.234 292.081 616.425C292.081 633.95 296.462 653.665 305.225 668.999C316.178 686.524 329.321 704.049 349.037 715.002L568.097 842.057L408.183 962.54L379.705 984.447L257.031 1076.45L232.935 1093.98L29.2085 1247.32C20.4461 1253.89 20.4461 1267.03 29.2085 1275.8C35.7804 1282.37 44.5428 1282.37 51.1146 1277.99L307.415 1120.26L340.274 1100.55L522.095 988.828L576.86 955.969L780.586 828.914C787.158 824.532 791.539 817.961 791.539 811.389C791.539 802.626 789.349 793.864 780.586 787.292" fill="white"/>
<path d="M986.502 412.705C1030.31 471.852 1043.46 546.332 1019.36 627.385C993.074 721.581 920.784 813.586 817.826 881.495C745.536 929.688 662.293 964.738 579.05 980.072L373.133 1107.13C401.611 1111.51 432.279 1113.7 462.948 1113.7C763.061 1113.7 1063.17 914.354 1137.65 660.244C1192.42 467.47 1104.8 296.603 927.356 215.551L809.063 303.175C885.734 322.89 947.071 360.131 986.502 410.515" fill="white"/>
<path d="M1122.3 5.24404C1115.73 -1.32777 1106.97 -1.32778 1100.4 3.05343L844.096 160.777L811.237 180.492L629.417 292.213L574.652 325.072L368.735 452.128C368.735 452.128 364.354 454.318 364.354 456.509C364.354 456.509 362.163 458.699 359.973 460.89C359.973 460.89 359.973 465.271 359.973 467.462C359.973 474.034 359.973 482.796 364.354 487.177C364.354 489.368 368.735 491.558 370.926 493.749L837.525 765.384L850.668 693.094C850.668 686.522 852.859 679.951 852.859 675.569C852.859 651.473 848.478 627.376 835.334 605.47C830.953 598.898 824.381 590.136 817.809 583.564C811.237 576.992 804.666 572.611 795.903 566.039L576.843 438.984L736.757 318.501L765.234 296.595L815.618 259.354L890.099 204.589L914.196 187.064L1117.92 33.7219C1126.68 27.1501 1126.68 14.0065 1117.92 5.24404" fill="white"/>
</svg>
