<svg width="5749" height="1282" viewBox="0 0 5749 1282" fill="none" xmlns="http://www.w3.org/2000/svg">
<path d="M4874.92 393.327H4715C4701.86 393.327 4697.48 393.327 4695.29 393.327H4682.14C4682.14 391.137 4673.38 399.899 4673.38 399.899C4666.81 406.471 4660.24 417.424 4660.24 434.949C4660.24 452.474 4664.62 465.617 4693.1 476.57C4699.67 478.761 4708.43 480.952 4717.19 483.142C4723.76 483.142 4730.34 485.333 4741.29 487.523C4745.67 487.523 4747.86 489.714 4747.86 491.905C4747.86 496.286 4752.24 500.667 4752.24 507.239V809.542L4460.89 439.33C4438.99 410.852 4410.51 395.518 4379.84 395.518H4303.17C4290.02 395.518 4285.64 395.518 4283.45 395.518L4268.12 391.137L4259.36 402.09C4252.78 410.852 4248.4 423.996 4248.4 441.521C4248.4 459.046 4252.78 467.808 4276.88 476.57C4281.26 476.57 4287.83 480.952 4294.41 480.952C4298.79 480.952 4305.36 483.142 4311.93 485.333C4311.93 485.333 4316.31 485.333 4318.5 487.523C4318.5 487.523 4318.5 489.714 4318.5 498.476V927.835C4318.5 938.788 4314.12 943.169 4311.93 945.36C4309.74 947.551 4305.36 949.741 4303.17 949.741C4294.4 951.932 4281.26 951.932 4270.31 949.741H4259.36C4259.36 947.551 4250.59 954.122 4250.59 954.122C4241.83 962.885 4237.45 973.838 4237.45 991.363C4237.45 1008.89 4244.02 1043.94 4314.12 1043.94H4474.03C4487.18 1043.94 4491.56 1043.94 4493.75 1043.94L4506.89 1048.32L4515.66 1037.37C4522.23 1028.6 4526.61 1015.46 4526.61 1002.32C4526.61 989.172 4522.23 971.647 4489.37 962.885C4482.8 962.885 4474.03 958.504 4467.46 958.504C4460.89 958.504 4454.32 956.313 4447.75 954.122C4438.99 951.932 4434.6 947.551 4432.41 934.407V621.15L4732.53 1000.13C4758.81 1032.98 4785.1 1050.51 4811.39 1050.51C4837.68 1050.51 4835.48 1050.51 4842.06 1046.13C4848.63 1043.94 4861.77 1035.17 4861.77 1011.08V505.048C4861.77 500.667 4861.77 489.714 4868.34 487.523C4868.34 487.523 4872.72 487.523 4874.92 487.523C4885.87 487.523 4903.39 487.523 4912.16 487.523L4925.3 491.905L4934.06 480.952C4942.82 472.189 4945.01 459.046 4945.01 439.33C4945.01 419.615 4931.87 393.327 4868.34 393.327H4874.92Z" fill="white"/>
<path d="M5376.57 752.571C5376.57 686.852 5363.42 632.087 5337.14 592.656C5321.8 570.75 5304.28 551.035 5280.18 537.891C5256.08 524.748 5225.42 518.176 5188.18 518.176C5150.93 518.176 5113.69 529.129 5076.45 551.035C5056.74 561.988 5039.21 575.132 5023.88 590.466C5006.35 605.8 4993.21 625.515 4980.07 647.421C4966.92 669.328 4958.16 693.424 4951.59 719.712C4945.02 745.999 4940.64 776.667 4940.64 809.526C4940.64 881.816 4960.35 940.963 4999.78 984.775C5039.21 1030.78 5096.17 1052.68 5166.27 1052.68C5236.37 1052.68 5264.85 1039.54 5306.47 1015.44C5345.9 991.347 5363.42 969.44 5363.42 947.534C5363.42 925.628 5359.04 925.628 5348.09 912.485C5339.33 903.722 5330.56 899.341 5321.8 899.341H5315.23L5308.66 903.722C5277.99 923.438 5236.37 934.391 5183.79 934.391C5131.22 934.391 5126.84 925.628 5107.12 905.913C5087.41 886.198 5074.26 857.72 5072.07 818.289L5323.99 813.908C5356.85 813.908 5374.38 792.001 5374.38 756.952L5376.57 752.571ZM5052.36 741.618C5058.93 697.805 5069.88 664.946 5089.6 640.85C5111.5 614.562 5139.98 601.419 5172.84 601.419C5234.18 601.419 5262.66 643.04 5260.47 726.283L5052.36 741.618Z" fill="white"/>
<path d="M5744.58 932.201C5729.25 901.533 5711.72 903.724 5700.77 908.105L5681.05 916.867C5674.48 919.058 5670.1 921.248 5663.53 923.439C5656.96 923.439 5650.38 927.82 5643.81 927.82C5637.24 927.82 5630.67 927.82 5621.91 927.82C5613.14 927.82 5608.76 927.82 5606.57 927.82C5606.57 927.82 5606.57 927.82 5604.38 923.439C5604.38 923.439 5600 910.295 5600 855.53V645.232H5613.14C5619.72 645.232 5626.29 645.232 5630.67 645.232C5637.24 645.232 5648.19 645.232 5663.53 645.232C5678.86 645.232 5698.58 640.851 5713.91 632.089C5738.01 618.945 5742.39 599.229 5742.39 586.086V572.942C5742.39 561.989 5740.2 551.036 5733.63 542.274L5727.06 531.321H5600V474.365C5600 465.602 5600 459.031 5602.19 450.268C5602.19 437.125 5597.81 423.981 5591.24 413.028C5582.48 399.884 5569.33 393.312 5556.19 393.312C5543.05 393.312 5538.66 393.313 5523.33 397.694H5505.8C5505.8 399.884 5505.8 417.409 5505.8 417.409C5503.61 439.315 5499.23 456.84 5494.85 472.174C5479.52 518.177 5457.61 544.464 5422.56 551.036C5415.99 551.036 5398.46 559.799 5398.46 588.276C5398.46 616.754 5402.85 610.182 5411.61 621.135C5420.37 632.089 5433.51 638.66 5448.85 638.66H5464.18V927.82C5464.18 973.823 5477.33 1006.68 5501.42 1026.4C5512.38 1035.16 5527.71 1041.73 5545.24 1043.92C5560.57 1046.11 5578.09 1048.3 5600 1048.3C5621.91 1048.3 5652.57 1041.73 5681.05 1026.4C5694.2 1019.83 5707.34 1011.06 5718.29 1002.3C5729.25 993.538 5738.01 982.585 5742.39 973.823C5746.77 965.06 5748.96 956.298 5748.96 947.536C5748.96 938.773 5748.96 932.201 5744.58 927.82V932.201Z" fill="white"/>
<path d="M931.825 965.059C927.444 962.869 920.872 958.487 914.301 956.297C907.729 956.297 903.348 951.916 896.776 951.916C892.395 951.916 888.013 951.916 885.823 949.725C881.442 949.725 879.251 943.153 879.251 934.391V618.944C879.251 590.466 874.87 568.56 868.298 553.225C861.726 542.272 855.154 533.51 844.201 526.938C833.248 520.366 820.105 518.176 800.389 518.176C780.674 518.176 760.958 524.748 736.862 535.701C725.908 540.082 714.956 546.654 706.193 553.225C695.24 559.797 688.668 568.56 682.096 575.131C673.334 586.085 671.143 599.228 675.525 612.372C682.096 634.278 697.431 640.85 710.574 640.85H714.955C721.527 638.659 728.099 636.468 734.671 636.468C741.243 636.468 743.433 636.468 743.433 636.468C743.433 636.468 747.815 640.85 747.815 662.756V927.819C747.815 943.153 745.624 947.534 743.433 949.725C743.433 949.725 736.862 951.916 734.671 951.916C732.48 951.916 730.29 951.916 723.718 951.916L708.384 947.534L697.431 960.678C690.859 969.441 686.478 982.584 686.478 997.918C686.478 1019.82 701.812 1048.3 769.721 1048.3H896.776C909.919 1048.3 914.301 1048.3 916.491 1048.3L929.635 1052.68L938.397 1041.73C944.969 1032.97 949.35 1019.82 949.35 1006.68C949.35 993.537 940.588 978.203 931.825 971.631V965.059Z" fill="white"/>
<path d="M758.771 483.104C769.724 487.485 780.677 489.676 791.63 489.676C815.727 489.676 837.633 480.913 855.158 465.579C872.683 448.054 881.445 428.339 881.445 404.242C881.445 380.146 872.682 358.239 857.348 342.905C842.014 327.571 822.299 318.809 796.011 318.809C769.724 318.809 750.009 327.571 732.484 342.905C714.959 360.43 704.006 380.146 704.006 404.242C704.006 428.339 712.768 450.245 728.103 465.579C736.865 472.151 745.627 478.723 756.58 483.104H758.771Z" fill="white"/>
<path d="M1536.43 965.039C1532.05 960.658 1525.48 958.467 1518.91 956.277C1514.53 956.277 1507.95 951.895 1501.38 951.895C1497 951.895 1492.62 951.895 1490.43 949.705C1490.43 949.705 1483.86 949.705 1483.86 934.371V667.117C1483.86 616.733 1468.52 577.302 1440.05 551.015C1426.9 537.871 1409.38 529.108 1391.85 524.727C1356.8 513.774 1317.37 513.774 1280.13 524.727C1242.89 535.68 1210.03 553.205 1177.17 575.111C1166.22 524.727 1133.36 515.965 1113.65 515.965C1093.93 515.965 1063.26 522.537 1039.16 537.871C1028.21 544.443 1019.45 551.014 1010.69 559.777C1001.92 568.539 995.353 575.111 990.971 581.683C984.4 590.445 982.209 599.208 982.209 607.97C982.209 616.733 982.209 625.495 993.162 636.448C995.353 640.829 999.734 643.02 1004.12 645.211C1010.69 649.592 1019.45 649.592 1028.21 645.211C1030.4 645.211 1034.78 643.02 1039.16 640.829C1039.16 640.829 1039.16 640.829 1043.55 640.829C1043.55 643.02 1047.93 649.592 1047.93 667.117V925.608C1047.93 940.942 1047.93 947.514 1047.93 949.705C1043.55 949.705 1039.16 949.705 1034.78 949.705L1019.45 945.324L1008.5 958.467C1001.92 967.23 997.543 980.373 997.543 997.898C997.543 1015.42 1001.92 1017.61 1006.31 1024.19C1017.26 1039.52 1039.16 1046.09 1072.02 1046.09H1199.08C1212.22 1046.09 1216.6 1046.09 1218.79 1046.09L1231.94 1050.47L1240.7 1039.52C1247.27 1030.76 1251.65 1017.61 1251.65 1004.47C1251.65 991.326 1242.89 975.992 1236.32 969.42C1231.94 965.039 1225.37 962.848 1218.79 960.658C1212.22 960.658 1207.84 958.467 1201.27 956.277C1196.89 956.277 1192.51 956.277 1190.32 954.086C1190.32 954.086 1183.74 954.086 1183.74 938.752V693.404C1196.89 680.26 1214.41 671.498 1231.94 662.735C1242.89 658.354 1256.03 653.973 1269.18 649.592C1295.47 643.02 1317.37 645.211 1330.52 647.401C1345.85 649.592 1352.42 667.117 1352.42 699.976V932.18C1352.42 945.323 1352.42 954.086 1352.42 956.277C1350.23 956.277 1343.66 956.277 1339.28 956.277L1323.94 951.895L1312.99 965.039C1306.42 973.801 1302.04 986.945 1302.04 1004.47C1302.04 1021.99 1306.42 1024.19 1310.8 1030.76C1321.75 1046.09 1343.66 1052.66 1376.52 1052.66H1503.57C1516.72 1052.66 1521.1 1052.66 1523.29 1052.66L1536.43 1057.04L1545.19 1046.09C1551.77 1037.33 1556.15 1024.19 1556.15 1011.04C1556.15 997.898 1547.39 982.564 1540.81 975.992L1536.43 965.039Z" fill="white"/>
<path d="M618.569 761.348L607.616 754.776C596.663 748.205 581.329 743.823 557.232 743.823C533.135 743.823 530.945 746.014 519.992 752.586L506.848 761.348V778.873C502.467 807.351 500.276 831.448 495.895 851.163C493.705 866.497 489.323 879.641 482.752 890.594C469.608 908.119 434.558 919.072 384.174 919.072H314.075C285.597 919.072 279.025 916.881 279.025 916.881C279.025 916.881 276.835 912.5 276.835 903.737V456.854C276.835 430.567 283.406 423.995 283.406 421.804C283.406 421.804 285.597 421.804 294.359 421.804C303.122 421.804 309.694 421.804 318.456 426.186L338.172 430.567L351.315 415.233C362.268 404.279 366.649 388.945 366.649 369.23C366.649 334.18 346.934 318.846 335.981 312.274C320.647 305.702 305.312 301.321 283.406 301.321H90.6332C64.3459 301.321 57.7741 301.321 57.7741 301.321L35.8681 292.559L20.5338 312.274C11.7714 323.227 5.19957 340.752 5.19957 358.277C5.19957 375.802 9.58078 382.373 16.1526 393.326C27.1056 410.851 49.0117 417.423 62.1553 419.614L84.0614 426.186C90.6332 426.186 95.0144 430.567 99.3956 430.567C101.586 430.567 103.777 430.567 103.777 439.329V892.784C103.777 925.644 95.0144 925.644 84.0614 925.644C68.7271 925.644 59.9647 925.644 53.3929 923.453L31.4868 916.881L16.1526 934.406C7.39017 945.359 0.818359 962.884 0.818359 980.409C0.818359 997.934 5.19957 1004.51 11.7714 1015.46C27.1056 1035.17 53.3929 1046.13 86.252 1046.13H585.71L596.663 1030.79C618.569 1000.12 629.522 947.55 629.522 873.069C629.522 798.588 625.141 800.779 618.569 774.492V761.348Z" fill="white"/>
<path d="M2106 932.215C2097.24 927.834 2090.66 925.644 2084.09 925.644C2077.52 925.644 2070.95 930.025 2064.38 932.215C2064.38 932.215 2059.99 932.215 2046.85 932.215C2046.85 932.215 2029.33 930.025 1985.51 866.497L1943.89 807.351C1932.94 792.017 1919.8 776.682 1908.84 763.539C1926.37 750.395 1946.08 737.252 1963.61 719.727C2033.71 658.39 2066.57 610.196 2066.57 570.765C2066.57 531.335 2055.61 509.429 1981.13 509.429C1906.65 509.429 1939.51 513.81 1919.8 522.572C1908.84 526.953 1900.08 531.335 1893.51 537.906C1880.37 548.859 1878.17 562.003 1878.17 568.575C1878.17 575.147 1880.37 586.1 1884.75 594.862L1891.32 605.815H1902.27C1906.65 605.815 1908.84 605.815 1911.03 605.815C1911.03 612.387 1902.27 623.34 1886.94 640.865C1878.17 651.818 1860.65 667.152 1834.36 684.677L1777.41 724.108V393.326C1777.41 362.658 1773.03 340.752 1766.45 327.608C1762.07 316.655 1753.31 307.893 1742.36 301.321C1731.4 294.749 1718.26 292.559 1698.55 292.559C1678.83 292.559 1659.11 299.13 1637.21 310.083C1626.25 314.465 1615.3 321.036 1608.73 327.608C1599.97 334.18 1593.4 342.943 1586.82 349.514C1578.06 362.658 1575.87 377.992 1586.82 391.136C1591.21 395.517 1595.59 399.898 1599.97 404.279C1606.54 408.661 1615.3 408.661 1626.25 406.47C1628.45 406.47 1630.64 406.47 1635.02 406.47C1641.59 406.47 1643.78 406.47 1645.97 406.47C1645.97 406.47 1645.97 410.851 1645.97 430.567V921.262C1645.97 936.597 1645.97 943.168 1645.97 945.359C1641.59 945.359 1637.21 945.359 1632.83 945.359L1617.49 940.978L1606.54 954.121C1599.97 962.884 1595.59 976.028 1595.59 993.552C1595.59 1011.08 1599.97 1013.27 1604.35 1019.84C1615.3 1035.17 1637.21 1041.75 1670.07 1041.75H1788.36C1801.5 1041.75 1805.88 1041.75 1808.08 1041.75L1821.22 1046.13L1829.98 1035.17C1836.55 1026.41 1840.93 1013.27 1840.93 1000.12C1840.93 986.981 1834.36 971.646 1825.6 965.074C1821.22 960.693 1814.65 958.503 1810.27 956.312C1805.88 956.312 1799.31 951.931 1792.74 951.931C1788.36 951.931 1786.17 951.931 1783.98 949.74C1779.6 949.74 1779.6 938.787 1779.6 930.025V800.779C1790.55 811.732 1808.08 833.638 1834.36 877.45L1867.22 934.406C1878.17 954.121 1891.32 973.837 1904.46 989.171C1917.61 1006.7 1932.94 1019.84 1948.27 1032.98C1965.8 1046.13 1987.7 1052.7 2013.99 1052.7C2040.28 1052.7 2064.38 1041.75 2088.47 1022.03C2097.24 1013.27 2103.81 1004.51 2110.38 993.552C2116.95 982.599 2119.14 973.837 2119.14 962.884C2119.14 949.74 2112.57 938.787 2103.81 932.215H2106Z" fill="white"/>
<path d="M3937.33 1245.47C3904.47 1245.47 3876 1243.28 3851.9 1236.7C3825.61 1232.32 3803.71 1223.56 3783.99 1210.42C3737.99 1184.13 3713.89 1144.7 3713.89 1094.31C3713.89 1043.93 3735.8 1013.26 3775.23 980.403C3779.61 976.022 3783.99 973.831 3790.56 969.45C3783.99 956.306 3779.61 943.163 3779.61 927.829C3779.61 899.351 3788.37 875.254 3808.09 853.348C3773.04 831.442 3751.13 800.773 3737.99 761.343C3733.61 743.818 3729.23 726.293 3729.23 704.387C3729.23 682.481 3733.61 662.765 3737.99 645.241C3744.56 627.716 3753.32 610.191 3764.28 594.857C3775.23 579.522 3788.37 568.569 3803.71 557.616C3819.04 546.663 3834.38 537.901 3849.71 531.329C3882.57 518.185 3915.43 511.614 3950.48 511.614C3985.53 511.614 4029.34 520.376 4060.01 535.71C4060.01 524.757 4060.01 518.185 4055.63 513.804L4044.67 498.47L4055.63 485.326C4070.96 467.802 4090.68 459.039 4119.15 459.039C4147.63 459.039 4152.01 463.42 4162.97 474.373C4180.49 489.708 4189.25 507.232 4189.25 524.757C4189.25 542.282 4187.06 551.045 4182.68 561.998C4178.3 572.951 4173.92 581.713 4167.35 590.475C4158.58 601.428 4149.82 612.381 4138.87 621.144C4145.44 640.859 4149.82 660.575 4149.82 682.481C4149.82 704.387 4143.25 739.437 4130.11 765.724C4116.96 789.82 4099.44 811.727 4077.53 829.251C4033.72 864.301 3981.15 881.826 3917.62 881.826C3854.09 881.826 3906.67 881.826 3897.9 881.826C3897.9 884.016 3897.9 886.207 3897.9 886.207C3897.9 890.588 3897.9 890.588 3897.9 890.588C3900.09 892.779 3904.47 894.97 3911.05 897.16C3922 899.351 3935.14 901.541 3950.48 901.541H3983.34C4077.53 901.541 4141.06 925.638 4171.73 973.831C4184.87 993.547 4191.44 1015.45 4191.44 1041.74C4191.44 1068.03 4187.06 1089.93 4178.3 1109.65C4169.54 1129.36 4158.59 1146.89 4143.25 1160.03C4130.11 1173.18 4112.58 1186.32 4095.06 1197.27C4077.53 1208.23 4057.82 1214.8 4038.1 1221.37C4000.86 1234.51 3963.62 1241.09 3930.76 1241.09L3937.33 1245.47ZM3880.38 1026.41C3858.47 1043.93 3845.33 1061.46 3845.33 1081.17C3845.33 1100.89 3849.71 1107.46 3876 1118.41C3897.9 1127.17 3924.19 1133.75 3954.86 1133.75C3985.53 1133.75 4011.81 1129.36 4035.91 1118.41C4070.96 1105.27 4075.34 1085.55 4075.34 1070.22C4075.34 1054.88 4075.34 1028.6 3994.29 1028.6H3959.24C3926.38 1028.6 3900.09 1028.6 3878.19 1022.02L3880.38 1026.41ZM3551.79 1048.31L3538.64 1043.93C3538.64 1043.93 3532.07 1043.93 3518.93 1043.93H3385.3C3352.44 1043.93 3330.54 1037.36 3319.58 1022.02C3313.01 1015.45 3310.82 1006.69 3310.82 995.737C3310.82 978.213 3315.2 967.26 3321.77 956.306L3332.73 943.163L3348.06 947.544C3354.63 947.544 3359.01 947.544 3361.2 947.544C3361.2 945.353 3361.2 938.782 3361.2 923.447V664.956C3361.2 647.431 3359.01 640.859 3356.82 638.669C3354.63 638.669 3352.44 638.669 3352.44 638.669C3348.06 640.859 3343.68 643.05 3341.49 643.05C3332.73 645.241 3323.96 645.241 3317.39 643.05C3313.01 640.859 3310.82 638.669 3306.44 634.287C3297.68 625.525 3295.49 614.572 3295.49 605.81C3295.49 597.047 3297.68 588.285 3304.25 579.522C3308.63 572.951 3315.2 564.188 3323.96 557.616C3332.73 551.044 3341.49 542.282 3352.44 535.71C3376.54 520.376 3402.83 513.804 3426.92 513.804C3451.02 513.804 3479.5 520.376 3490.45 568.569C3521.12 546.663 3551.79 531.329 3584.65 520.376C3617.51 509.423 3645.98 511.614 3665.7 520.376C3676.65 524.757 3685.41 531.329 3691.99 540.091C3702.94 555.426 3709.51 572.951 3709.51 594.857C3709.51 616.763 3709.51 627.716 3707.32 638.669C3707.32 649.622 3702.94 658.384 3700.75 667.147C3694.18 686.862 3689.8 700.006 3681.03 706.577C3670.08 717.53 3654.75 724.102 3635.03 724.102C3604.36 724.102 3593.41 706.577 3593.41 691.243C3593.41 654.003 3593.41 645.241 3591.22 643.05C3591.22 638.669 3589.03 636.478 3589.03 636.478C3578.07 636.478 3569.31 636.478 3560.55 640.859C3551.79 643.05 3543.02 647.431 3536.45 649.622C3521.12 656.194 3510.17 664.956 3499.21 675.909V930.019C3499.21 943.163 3505.78 945.353 3510.17 945.353C3514.55 945.353 3518.93 947.544 3525.5 947.544C3532.07 947.544 3538.64 949.735 3545.22 951.925C3551.79 951.925 3558.36 956.307 3562.74 960.688C3571.5 967.26 3580.27 978.213 3580.27 995.737C3580.27 1013.26 3575.88 1022.02 3569.31 1030.79L3560.55 1041.74L3551.79 1048.31ZM3937.33 616.763C3891.33 616.763 3878.19 638.669 3871.62 656.194C3867.23 664.956 3867.23 678.1 3867.23 693.434C3867.23 708.768 3869.43 721.912 3873.81 735.055C3878.19 746.008 3882.57 754.771 3891.33 763.533C3897.9 770.105 3906.67 776.677 3915.43 778.867C3935.14 785.439 3959.24 785.439 3978.96 778.867C3987.72 776.677 3996.48 772.296 4003.05 765.724C4016.2 754.771 4024.96 737.246 4024.96 713.149C4024.96 689.053 4018.39 662.765 4003.05 643.05C3987.72 623.334 3968 614.572 3939.52 614.572L3937.33 616.763Z" fill="white"/>
<path d="M2276.85 877.416C2233.04 824.842 2215.52 756.933 2230.85 682.452C2248.38 586.066 2318.48 487.489 2421.43 413.008C2474.01 373.577 2533.15 345.099 2596.68 323.193C2625.16 314.431 2651.45 305.668 2679.93 301.287L2885.84 174.232C2857.36 169.851 2826.7 167.66 2793.84 167.66C2467.44 167.66 2160.75 393.293 2110.37 660.546C2075.32 840.176 2169.51 991.328 2331.62 1065.81L2449.91 978.184C2377.62 960.659 2318.48 925.61 2279.04 877.416" fill="#E65D0F"/>
<path d="M2877.09 789.811L2410.49 518.176L2397.35 590.466C2397.35 597.038 2395.16 603.609 2395.16 607.991C2395.16 610.181 2395.16 614.562 2395.16 616.753C2395.16 634.278 2399.54 653.993 2408.3 669.327C2419.26 686.852 2432.4 704.377 2452.11 715.33L2671.18 842.385L2511.26 962.869L2482.78 984.775L2360.11 1076.78L2336.01 1094.3L2132.29 1247.65C2123.52 1254.22 2123.52 1267.36 2132.29 1276.13C2138.86 1282.7 2147.62 1282.7 2154.19 1278.32L2410.49 1120.59L2443.35 1100.88L2625.17 989.156L2679.94 956.297L2883.66 829.242C2890.24 824.861 2894.62 818.289 2894.62 811.717C2894.62 802.954 2892.43 794.192 2883.66 787.62" fill="#E65D0F"/>
<path d="M3089.58 413.033C3133.39 472.18 3146.54 546.66 3122.44 627.713C3096.15 721.909 3023.86 813.914 2920.9 881.823C2848.61 930.016 2765.37 965.066 2682.13 980.4L2476.21 1107.46C2504.69 1111.84 2535.36 1114.03 2566.03 1114.03C2866.14 1114.03 3166.25 914.682 3240.73 660.572C3295.5 467.799 3207.87 296.931 3030.43 215.879L2912.14 303.503C2988.81 323.219 3050.15 360.459 3089.58 410.843" fill="white"/>
<path d="M3225.38 5.57217C3218.81 -0.999647 3210.05 -0.999655 3203.48 3.38156L2947.17 161.105L2914.32 180.821L2732.5 292.541L2677.73 325.401L2471.81 452.456C2471.81 452.456 2467.43 454.646 2467.43 456.837C2467.43 456.837 2465.24 459.027 2463.05 461.218C2463.05 461.218 2463.05 465.599 2463.05 467.79C2463.05 474.362 2463.05 483.124 2467.43 487.505C2467.43 489.696 2471.81 491.887 2474 494.077L2940.6 765.712L2953.75 693.422C2953.75 686.85 2955.94 680.279 2955.94 675.897C2955.94 651.801 2951.56 627.704 2938.41 605.798C2934.03 599.226 2927.46 590.464 2920.89 583.892C2914.32 577.32 2907.74 572.939 2898.98 566.367L2679.92 439.312L2839.84 318.829L2868.31 296.923L2918.7 259.682L2993.18 204.917L3017.27 187.392L3221 34.05C3229.76 27.4782 3229.76 14.3346 3221 5.57217" fill="white"/>
</svg>
