<svg width="5749" height="1282" viewBox="0 0 5749 1282" fill="none" xmlns="http://www.w3.org/2000/svg">
<path d="M4874.61 392.933H4681.84C4681.84 390.742 4673.08 399.505 4673.08 399.505C4666.51 406.076 4659.94 417.029 4659.94 434.554C4659.94 452.079 4664.32 465.223 4692.79 476.176C4699.37 478.366 4708.13 480.557 4716.89 482.748C4723.46 482.748 4730.03 484.938 4740.99 487.129C4745.37 487.129 4747.56 489.319 4747.56 491.51C4747.56 495.891 4751.94 500.272 4751.94 506.844V809.148L4460.59 438.936C4438.68 410.458 4410.21 395.123 4379.54 395.123H4283.15L4267.82 390.742L4259.05 401.695C4252.48 410.458 4248.1 423.601 4248.1 441.126C4248.1 458.651 4252.48 467.413 4276.58 476.176C4280.96 476.176 4287.53 480.557 4294.1 480.557C4300.68 480.557 4305.06 482.748 4311.63 484.938C4311.63 484.938 4316.01 484.938 4318.2 487.129V927.441C4318.2 938.394 4313.82 942.775 4311.63 944.965C4309.44 947.156 4305.06 949.347 4302.87 949.347C4294.1 949.347 4280.96 949.347 4270.01 949.347H4259.05L4250.29 953.728C4241.53 962.49 4237.15 973.443 4237.15 990.968C4237.15 1008.49 4243.72 1043.54 4313.82 1043.54H4493.45L4506.59 1047.92L4515.36 1036.97C4521.93 1028.21 4526.31 1015.06 4526.31 1001.92C4526.31 988.777 4521.93 971.253 4489.07 962.49C4482.5 962.49 4473.73 958.109 4467.16 958.109C4460.59 958.109 4454.02 958.109 4447.45 953.728C4438.68 953.728 4434.3 947.156 4432.11 934.012V620.756L4732.23 999.731C4758.51 1032.59 4784.8 1050.11 4811.09 1050.11C4837.37 1050.11 4835.18 1050.11 4841.76 1045.73C4848.33 1045.73 4861.47 1034.78 4861.47 1010.68V504.654C4861.47 500.272 4861.47 489.319 4868.04 487.129H4911.85L4925 491.51L4933.76 480.557C4942.52 471.795 4944.71 458.651 4944.71 438.936C4944.71 419.22 4931.57 392.933 4868.04 392.933H4874.61Z" fill="#010156"/>
<path d="M5376.27 752.137C5376.27 686.419 5363.12 631.654 5336.84 592.223C5321.5 570.317 5303.98 550.601 5279.88 537.458C5255.78 524.314 5225.11 517.742 5187.87 517.742C5150.63 517.742 5113.39 528.695 5076.15 550.601C5056.44 561.554 5038.91 574.698 5023.58 590.032C5006.05 605.366 4992.91 625.082 4979.77 646.988C4966.62 668.894 4957.86 692.991 4951.29 719.278C4944.72 745.565 4940.34 776.234 4940.34 809.093C4940.34 881.383 4960.05 940.529 4999.48 984.341C5038.91 1030.34 5095.87 1052.25 5165.97 1052.25C5236.07 1052.25 5264.55 1039.11 5306.17 1015.01C5345.6 990.913 5363.12 969.007 5363.12 947.101C5363.12 925.195 5358.74 925.195 5347.79 912.051C5339.03 903.289 5330.26 898.908 5321.5 898.908H5314.93L5308.36 903.289C5277.69 923.004 5236.07 933.957 5183.49 933.957C5130.92 933.957 5126.54 925.195 5106.82 905.479C5087.11 885.764 5073.96 857.286 5071.77 817.855L5323.69 813.474C5356.55 813.474 5374.08 791.568 5374.08 756.518V752.137H5376.27ZM5052.06 741.184C5058.63 697.372 5069.58 664.513 5089.3 640.416C5111.2 614.129 5139.68 600.985 5172.54 600.985C5233.88 600.985 5262.36 642.607 5260.16 725.85L5052.06 741.184Z" fill="#010156"/>
<path d="M5744.28 931.807C5728.95 901.138 5711.42 903.329 5700.47 907.71L5680.75 916.473C5674.18 916.473 5669.8 920.854 5663.23 923.044C5656.66 923.044 5650.08 927.426 5643.51 927.426H5606.27V923.044C5604.08 923.044 5599.7 909.901 5599.7 855.136V644.838H5663.23C5678.56 644.838 5698.28 640.456 5713.61 631.694C5737.71 618.55 5742.09 598.835 5742.09 585.691V572.548C5742.09 561.595 5739.9 550.642 5733.33 541.879L5726.75 530.926H5599.7V473.97C5599.7 465.208 5599.7 458.636 5601.89 449.874C5601.89 436.73 5597.51 423.586 5590.94 412.633C5582.18 399.49 5569.03 392.918 5555.89 392.918C5542.74 392.918 5538.36 392.918 5523.03 397.299H5505.5V417.015C5503.31 438.921 5498.93 456.446 5494.55 471.78C5479.22 517.782 5457.31 544.07 5422.26 550.642C5415.69 550.642 5398.16 559.404 5398.16 587.882C5398.16 616.36 5402.55 609.788 5411.31 620.741C5420.07 631.694 5433.21 638.266 5448.55 638.266H5463.88V927.426C5463.88 973.428 5477.03 1006.29 5501.12 1026C5512.08 1034.77 5527.41 1041.34 5544.93 1043.53C5560.27 1043.53 5577.79 1047.91 5599.7 1047.91C5621.61 1047.91 5652.27 1041.34 5680.75 1026C5693.9 1019.43 5707.04 1010.67 5717.99 1001.91C5728.95 993.144 5737.71 982.191 5742.09 973.428C5746.47 964.666 5748.66 955.904 5748.66 947.141C5748.66 938.379 5748.66 931.807 5744.28 927.426V931.807Z" fill="#010156"/>
<path d="M931.527 964.685C927.145 964.685 920.574 958.113 914.002 955.923C907.43 955.923 903.049 951.541 896.477 951.541C889.905 951.541 887.715 951.541 885.524 951.541C881.143 951.541 878.952 944.97 878.952 936.207V620.76C878.952 592.282 874.571 570.376 867.999 555.042C861.427 544.089 854.855 535.326 843.902 528.755C832.949 522.183 819.806 519.992 800.09 519.992C780.375 519.992 760.659 526.564 736.563 537.517C725.61 541.898 714.657 548.47 705.894 555.042C694.941 561.614 688.369 570.376 681.798 576.948C673.035 587.901 670.845 601.045 675.226 614.188C681.798 636.094 697.132 642.666 710.275 642.666H714.657C721.228 642.666 727.8 638.285 734.372 638.285H743.135C743.135 638.285 747.516 642.666 747.516 664.572V929.635C747.516 944.97 747.516 949.351 743.135 951.541C743.135 951.541 736.563 951.541 734.372 951.541H723.419L708.085 947.16L697.132 960.304C690.56 969.066 686.179 982.21 686.179 997.544C686.179 1019.45 701.513 1047.93 769.422 1047.93H916.192L929.336 1052.31L938.098 1041.36C944.67 1032.59 949.051 1019.45 949.051 1006.31C949.051 993.163 940.289 977.829 931.527 971.257V964.685Z" fill="#010156"/>
<path d="M758.472 482.706C769.425 487.087 780.378 489.277 791.331 489.277C815.428 489.277 837.334 480.515 854.859 465.181C872.384 447.656 881.146 427.94 881.146 403.844C881.146 379.747 872.384 357.841 857.049 342.507C841.715 327.173 822 318.41 795.712 318.41C769.425 318.41 749.71 327.173 732.185 342.507C714.66 360.032 703.707 379.747 703.707 403.844C703.707 427.94 712.47 449.846 727.804 465.181C736.566 471.752 745.329 478.324 756.282 482.706H758.472Z" fill="#010156"/>
<path d="M1536.13 964.626C1531.75 960.244 1525.18 958.054 1518.61 955.863C1514.23 955.863 1507.66 951.482 1501.08 951.482C1494.51 951.482 1492.32 951.482 1490.13 951.482C1490.13 951.482 1483.56 951.482 1483.56 936.148V668.894C1483.56 618.51 1468.22 579.079 1439.75 552.792C1426.6 539.648 1409.08 530.886 1391.55 526.505C1356.5 515.552 1317.07 515.552 1279.83 526.505C1242.59 537.458 1209.73 554.982 1176.87 576.889C1165.92 526.505 1133.06 517.742 1113.35 517.742C1093.63 517.742 1062.96 524.314 1038.87 539.648C1027.91 546.22 1019.15 552.792 1010.39 561.554C1001.63 570.317 995.054 576.889 990.673 583.46C984.101 592.223 981.91 600.985 981.91 609.748C981.91 618.51 981.91 627.272 992.863 638.225C992.863 642.607 999.435 644.797 1003.82 646.988C1010.39 651.369 1019.15 651.369 1027.91 646.988C1027.91 646.988 1034.48 646.988 1038.87 642.607H1043.25C1043.25 642.607 1047.63 651.369 1047.63 668.894V951.482H1034.48L1019.15 947.101L1008.2 960.244C1001.63 969.007 997.244 982.151 997.244 999.675C997.244 1017.2 1001.63 1019.39 1006.01 1025.96C1016.96 1041.3 1038.87 1047.87 1071.73 1047.87H1218.5L1231.64 1052.25L1240.4 1041.3C1246.97 1032.53 1251.35 1019.39 1251.35 1006.25C1251.35 993.104 1242.59 977.769 1236.02 971.198C1229.45 964.626 1225.07 964.626 1218.5 962.435C1211.92 962.435 1207.54 962.435 1200.97 958.054C1196.59 958.054 1192.21 958.054 1190.02 958.054C1190.02 958.054 1183.45 958.054 1183.45 942.72V697.372C1196.59 684.228 1214.11 675.466 1231.64 666.703C1242.59 662.322 1255.74 657.941 1268.88 653.56C1295.17 646.988 1317.07 649.179 1330.22 653.56C1345.55 653.56 1352.12 673.275 1352.12 706.134V962.435H1338.98L1323.64 958.054L1312.69 971.198C1306.12 979.96 1301.74 993.104 1301.74 1010.63C1301.74 1028.15 1306.12 1030.34 1310.5 1036.92C1321.45 1052.25 1343.36 1058.82 1376.22 1058.82H1522.99L1536.13 1063.2L1544.9 1052.25C1551.47 1043.49 1555.85 1030.34 1555.85 1017.2C1555.85 1004.06 1547.09 988.722 1540.51 982.151L1536.13 971.198V964.626Z" fill="#010156"/>
<path d="M618.27 760.939L607.317 754.367C596.364 747.795 581.03 743.414 556.933 743.414C532.837 743.414 530.646 743.414 519.693 752.176L506.549 760.939V778.464C502.168 806.941 499.978 831.038 495.596 850.754C493.406 866.088 489.025 879.231 482.453 890.185C469.309 907.709 434.259 918.662 383.875 918.662H313.776C285.298 918.662 278.726 918.662 278.726 918.662C278.726 918.662 276.536 914.281 276.536 905.519V458.635C276.536 432.348 283.108 425.776 283.108 423.586H294.061C302.823 423.586 309.395 423.586 318.157 427.967L337.873 432.348L351.016 417.014C361.969 406.061 366.351 390.726 366.351 371.011C366.351 335.961 346.635 320.627 335.682 314.055C320.348 307.483 305.014 303.102 283.108 303.102H57.4753L35.5692 294.34L20.235 314.055C11.4726 325.008 4.90074 342.533 4.90074 360.058C4.90074 377.583 9.28195 384.155 15.8538 395.108C26.8068 412.633 48.7129 419.204 61.8565 421.395L83.7625 427.967C90.3344 427.967 94.7156 432.348 99.0968 432.348C103.478 432.348 103.478 432.348 103.478 441.11V894.566C103.478 927.425 94.7156 927.425 83.7625 927.425C72.8095 927.425 59.6659 927.425 53.0941 927.425L31.188 920.853L15.8538 938.378C7.09134 949.331 0.519531 966.856 0.519531 984.381C0.519531 1001.91 4.90074 1008.48 11.4726 1019.43C26.8068 1039.15 53.0941 1050.1 85.9531 1050.1H585.411L596.364 1034.76C618.27 1004.1 629.223 951.521 629.223 877.041C629.223 802.56 624.842 804.751 618.27 778.464V765.32V760.939Z" fill="#010156"/>
<path d="M2105.7 931.821C2096.94 927.44 2090.36 925.249 2083.79 925.249C2077.22 925.249 2070.65 929.63 2064.08 931.821H2046.55C2046.55 931.821 2029.03 931.821 1985.22 866.103L1943.59 806.956C1932.64 791.622 1919.5 776.288 1908.54 763.144C1926.07 750.001 1945.78 736.857 1963.31 719.332C2033.41 657.995 2066.27 609.802 2066.27 570.371C2066.27 530.94 2055.31 509.034 1980.83 509.034C1906.35 509.034 1939.21 513.415 1919.5 522.178C1908.54 526.559 1899.78 530.94 1893.21 537.512C1880.07 548.465 1877.88 561.609 1877.88 568.18C1877.88 574.752 1877.88 585.705 1884.45 594.468L1891.02 605.421H1910.73C1910.73 611.992 1901.97 622.945 1886.64 640.47C1877.88 651.423 1860.35 666.758 1834.06 684.282L1777.11 723.713V392.932C1777.11 362.263 1772.73 340.357 1766.15 327.214C1761.77 316.261 1753.01 307.498 1742.06 300.926C1731.11 294.355 1717.96 292.164 1698.25 292.164C1678.53 292.164 1658.82 298.736 1636.91 309.689C1625.96 314.07 1615 320.642 1608.43 327.214C1599.67 333.786 1593.1 342.548 1586.53 349.12C1577.76 362.263 1575.57 377.598 1586.53 390.741C1590.91 395.123 1595.29 399.504 1599.67 403.885C1606.24 408.266 1615 408.266 1625.96 406.076H1645.67V944.964H1632.53L1617.19 940.583L1606.24 953.727C1599.67 962.489 1595.29 975.633 1595.29 993.158C1595.29 1010.68 1599.67 1012.87 1604.05 1019.44C1615 1034.78 1636.91 1041.35 1669.77 1041.35H1807.78L1820.92 1045.73L1829.68 1034.78C1836.25 1026.02 1840.64 1012.87 1840.64 999.73C1840.64 986.586 1834.06 971.252 1825.3 964.68C1820.92 960.299 1814.35 958.108 1809.97 955.917C1805.59 955.917 1799.01 951.536 1792.44 951.536C1785.87 951.536 1785.87 951.536 1783.68 951.536C1779.3 951.536 1779.3 940.583 1779.3 931.821V802.575C1790.25 813.528 1807.78 835.434 1834.06 879.246L1866.92 936.202C1877.88 955.917 1891.02 975.633 1904.16 990.967C1917.31 1008.49 1932.64 1021.64 1947.98 1034.78C1965.5 1047.92 1987.41 1054.49 2013.69 1054.49C2039.98 1054.49 2064.08 1043.54 2088.17 1023.83C2096.94 1015.06 2103.51 1006.3 2110.08 995.348C2116.65 984.395 2118.84 975.633 2118.84 964.68C2118.84 953.727 2112.27 940.583 2103.51 934.011L2105.7 931.821Z" fill="#010156"/>
<path d="M3937.03 1245.04C3904.18 1245.04 3875.7 1245.04 3851.6 1236.27C3825.31 1231.89 3803.41 1223.13 3783.69 1209.99C3737.69 1183.7 3713.59 1144.27 3713.59 1093.88C3713.59 1043.5 3735.5 1012.83 3774.93 979.973C3779.31 975.592 3783.69 973.402 3790.26 969.02C3783.69 955.877 3779.31 942.733 3779.31 927.399C3779.31 898.921 3788.07 874.824 3807.79 852.918C3772.74 831.012 3750.83 800.344 3737.69 760.913C3733.31 743.388 3728.93 725.863 3728.93 703.957C3728.93 682.051 3733.31 662.336 3737.69 644.811C3744.26 627.286 3753.02 609.761 3763.98 594.427C3774.93 579.093 3788.07 568.14 3803.41 557.187C3818.74 546.234 3834.08 537.471 3849.41 530.899C3882.27 517.756 3915.13 511.184 3950.18 511.184C3985.23 511.184 4029.04 519.946 4059.71 535.281C4059.71 524.328 4059.71 517.756 4055.33 513.375L4044.37 498.04L4055.33 484.897C4070.66 467.372 4090.38 458.609 4118.86 458.609C4147.33 458.609 4151.71 462.991 4162.67 473.944C4180.19 489.278 4188.95 506.803 4188.95 524.328C4188.95 541.852 4186.76 550.615 4182.38 561.568C4178 572.521 4173.62 581.283 4167.05 590.046C4158.29 600.999 4149.52 611.952 4138.57 620.714C4145.14 640.43 4149.52 660.145 4149.52 682.051C4149.52 703.957 4142.95 739.007 4129.81 765.294C4116.66 789.391 4099.14 811.297 4077.23 828.822C4033.42 863.871 3980.85 881.396 3917.32 881.396C3853.79 881.396 3906.37 881.396 3897.6 881.396V890.159C3899.79 890.159 3904.18 894.54 3910.75 896.73C3921.7 896.73 3934.84 901.112 3950.18 901.112H3983.04C4077.23 901.112 4140.76 925.208 4171.43 973.402C4184.57 993.117 4191.15 1015.02 4191.15 1041.31C4191.15 1067.6 4186.76 1089.5 4178 1109.22C4169.24 1128.93 4158.29 1146.46 4142.95 1159.6C4129.81 1172.75 4112.28 1185.89 4094.76 1196.84C4077.23 1207.8 4057.52 1214.37 4037.8 1220.94C4000.56 1234.08 3963.32 1240.66 3930.46 1240.66L3937.03 1245.04ZM3880.08 1025.98C3858.17 1043.5 3845.03 1061.03 3845.03 1080.74C3845.03 1100.46 3849.41 1107.03 3875.7 1117.98C3897.6 1126.74 3923.89 1133.32 3954.56 1133.32C3985.23 1133.32 4011.52 1128.93 4035.61 1117.98C4070.66 1104.84 4075.04 1085.12 4075.04 1069.79C4075.04 1054.45 4075.04 1028.17 3993.99 1028.17H3958.94C3926.08 1028.17 3899.79 1028.17 3877.89 1021.59V1025.98H3880.08ZM3551.49 1047.88L3538.34 1043.5H3385C3352.14 1043.5 3330.24 1036.93 3319.28 1021.59C3312.71 1015.02 3310.52 1006.26 3310.52 995.308C3310.52 977.783 3314.9 966.83 3321.48 955.877L3332.43 942.733L3347.76 947.114H3360.91V664.526C3360.91 647.001 3358.72 640.43 3356.52 638.239H3352.14C3347.76 638.239 3343.38 642.62 3341.19 642.62C3332.43 642.62 3323.67 642.62 3317.09 642.62C3312.71 642.62 3310.52 638.239 3306.14 633.858C3297.38 625.095 3295.19 614.142 3295.19 605.38C3295.19 596.618 3297.38 587.855 3303.95 579.093C3308.33 572.521 3314.9 563.758 3323.67 557.187C3332.43 550.615 3341.19 541.852 3352.14 535.281C3376.24 519.946 3402.53 513.375 3426.62 513.375C3450.72 513.375 3479.2 519.946 3490.15 568.14C3520.82 546.234 3551.49 530.899 3584.35 519.946C3617.21 508.993 3645.68 511.184 3665.4 519.946C3676.35 524.328 3685.12 530.899 3691.69 539.662C3702.64 554.996 3709.21 572.521 3709.21 594.427C3709.21 616.333 3709.21 627.286 3707.02 638.239C3707.02 649.192 3702.64 657.954 3700.45 666.717C3693.88 686.432 3689.5 699.576 3680.73 706.148C3669.78 717.101 3654.45 723.673 3634.73 723.673C3604.06 723.673 3593.11 706.148 3593.11 690.814C3593.11 653.573 3593.11 644.811 3590.92 642.62C3590.92 638.239 3588.73 636.048 3588.73 636.048C3577.78 636.048 3569.01 636.048 3560.25 640.43C3551.49 640.43 3542.73 647.001 3536.15 649.192C3520.82 655.764 3509.87 664.526 3498.91 675.479V929.59C3498.91 942.733 3505.49 944.924 3509.87 944.924C3514.25 944.924 3518.63 944.924 3525.2 944.924C3531.77 944.924 3538.34 944.924 3544.92 949.305C3551.49 949.305 3558.06 953.686 3562.44 958.067C3571.2 964.639 3579.97 975.592 3579.97 993.117C3579.97 1010.64 3575.58 1019.4 3569.01 1028.17L3560.25 1039.12L3551.49 1045.69V1047.88ZM3937.03 616.333C3891.03 616.333 3877.89 638.239 3871.32 655.764C3866.94 664.526 3866.94 677.67 3866.94 693.004C3866.94 708.338 3869.13 721.482 3873.51 734.626C3877.89 745.579 3882.27 754.341 3891.03 763.104C3897.6 769.675 3906.37 776.247 3915.13 778.438C3934.84 785.01 3958.94 785.01 3978.66 778.438C3987.42 778.438 3996.18 771.866 4002.75 765.294C4015.9 754.341 4024.66 736.816 4024.66 712.72C4024.66 688.623 4018.09 662.336 4002.75 642.62C3987.42 622.905 3967.7 614.142 3939.23 614.142H3937.03V616.333Z" fill="#E65D0F"/>
<path d="M2276.56 877.018C2232.74 824.443 2215.22 756.535 2230.55 682.054C2248.08 585.667 2318.18 487.09 2421.14 412.61C2473.71 373.179 2532.86 344.701 2596.39 322.795C2624.86 314.032 2651.15 305.27 2679.63 300.889L2885.54 173.834C2857.07 169.452 2826.4 167.262 2793.54 167.262C2467.14 167.262 2160.45 392.894 2110.07 660.148C2075.02 839.778 2169.22 990.929 2331.32 1065.41L2449.61 977.786C2377.32 960.261 2318.18 925.211 2278.75 877.018" fill="#E65D0F"/>
<path d="M2876.8 789.377L2410.2 517.742L2397.05 590.032C2397.05 596.604 2397.05 603.176 2397.05 607.557V616.319C2397.05 633.844 2401.43 653.56 2410.2 668.894C2421.15 686.419 2434.29 703.944 2454.01 714.897L2673.07 841.952L2513.16 962.435L2484.68 984.341L2362 1076.35L2337.91 1093.87L2134.18 1247.21C2125.42 1253.79 2125.42 1266.93 2134.18 1275.69C2142.94 1284.45 2149.52 1282.26 2156.09 1275.69L2412.39 1117.97L2445.25 1098.25L2627.07 986.532L2681.83 953.673L2885.56 826.617C2892.13 822.236 2896.51 815.664 2896.51 809.093C2896.51 802.521 2894.32 791.568 2885.56 784.996" fill="#E65D0F"/>
<path d="M3089.28 412.635C3133.1 471.781 3146.24 546.262 3122.14 627.314C3095.86 721.51 3023.57 813.516 2920.61 881.425C2848.32 929.618 2765.07 964.668 2681.83 980.002L2475.91 1107.06C2504.39 1111.44 2535.06 1113.63 2565.73 1113.63C2865.84 1113.63 3165.95 914.284 3240.44 660.173C3295.2 467.4 3207.58 296.533 3030.14 215.48L2911.84 303.105C2988.52 322.82 3049.85 360.06 3089.28 410.444" fill="#010156"/>
<path d="M3225.08 5.15543C3218.51 -1.41639 3209.75 -1.41639 3203.17 5.15543L2946.87 162.879L2914.01 182.594L2732.19 294.315L2677.43 327.174L2471.51 454.23C2471.51 454.23 2467.13 456.42 2467.13 458.611L2462.75 462.992V469.564C2462.75 476.136 2462.75 484.898 2467.13 489.279C2467.13 491.47 2471.51 493.66 2473.7 495.851L2940.3 767.486L2953.45 695.196C2953.45 688.624 2955.64 682.053 2955.64 677.671C2955.64 653.575 2951.26 629.478 2938.11 607.572C2933.73 601 2927.16 592.238 2920.59 585.666C2914.01 579.094 2907.44 574.713 2898.68 568.141L2679.62 441.086L2839.53 320.603L2868.01 298.697L2918.4 261.456L2992.88 206.691L3016.97 189.166L3220.7 35.8239C3229.46 29.2521 3229.46 16.1085 3220.7 7.34603" fill="#010156"/>
</svg>
