<svg width="5749" height="1282" viewBox="0 0 5749 1282" fill="none" xmlns="http://www.w3.org/2000/svg">
<path d="M4874.27 393.327H4714.35C4701.21 393.327 4696.83 393.327 4694.64 393.327H4681.49C4681.49 391.137 4672.73 399.899 4672.73 399.899C4666.16 406.471 4659.59 417.424 4659.59 434.949C4659.59 452.474 4663.97 465.617 4692.45 476.57C4699.02 478.761 4707.78 480.952 4716.54 483.142C4723.12 483.142 4729.69 485.333 4740.64 487.523C4745.02 487.523 4747.21 489.714 4747.21 491.905C4747.21 496.286 4751.59 500.667 4751.59 507.239V809.542L4460.24 439.33C4438.34 410.852 4409.86 395.518 4379.19 395.518H4302.52C4289.38 395.518 4284.99 395.518 4282.8 395.518L4267.47 391.137L4258.71 402.09C4252.14 410.852 4247.75 423.996 4247.75 441.521C4247.75 459.046 4252.14 467.808 4276.23 476.57C4280.61 476.57 4287.18 480.952 4293.76 480.952C4298.14 480.952 4304.71 483.142 4311.28 485.333C4311.28 485.333 4315.66 485.333 4317.85 487.523C4317.85 487.523 4317.85 489.714 4317.85 498.476V927.835C4317.85 938.788 4313.47 943.169 4311.28 945.36C4309.09 947.551 4304.71 949.741 4302.52 949.741C4293.76 951.932 4280.61 951.932 4269.66 949.741H4258.71C4258.71 947.551 4249.94 954.122 4249.94 954.122C4241.18 962.885 4236.8 973.838 4236.8 991.363C4236.8 1008.89 4243.37 1043.94 4313.47 1043.94H4473.39C4486.53 1043.94 4490.91 1043.94 4493.1 1043.94L4506.25 1048.32L4515.01 1037.37C4521.58 1028.6 4525.96 1015.46 4525.96 1002.32C4525.96 989.172 4521.58 971.647 4488.72 962.885C4482.15 962.885 4473.39 958.504 4466.81 958.504C4460.24 958.504 4453.67 956.313 4447.1 954.122C4438.34 951.932 4433.96 947.551 4431.76 934.407V621.15L4731.88 1000.13C4758.16 1032.98 4784.45 1050.51 4810.74 1050.51C4837.03 1050.51 4834.84 1050.51 4841.41 1046.13C4847.98 1043.94 4861.12 1035.17 4861.12 1011.08V505.048C4861.12 500.667 4861.12 489.714 4867.7 487.523C4867.7 487.523 4872.08 487.523 4874.27 487.523C4885.22 487.523 4902.74 487.523 4911.51 487.523L4924.65 491.905L4933.41 480.952C4942.18 472.189 4944.37 459.046 4944.37 439.33C4944.37 419.615 4931.22 393.327 4867.7 393.327H4874.27Z" fill="white"/>
<path d="M5375.92 752.571C5375.92 686.852 5362.78 632.087 5336.49 592.656C5321.15 570.75 5303.63 551.035 5279.53 537.891C5255.44 524.748 5224.77 518.176 5187.53 518.176C5150.29 518.176 5113.05 529.129 5075.81 551.035C5056.09 561.988 5038.57 575.132 5023.23 590.466C5005.71 605.8 4992.56 625.515 4979.42 647.421C4966.28 669.328 4957.51 693.424 4950.94 719.712C4944.37 745.999 4939.99 776.667 4939.99 809.526C4939.99 881.816 4959.7 940.963 4999.13 984.775C5038.57 1030.78 5095.52 1052.68 5165.62 1052.68C5235.72 1052.68 5264.2 1039.54 5305.82 1015.44C5345.25 991.347 5362.78 969.44 5362.78 947.534C5362.78 925.628 5358.39 925.628 5347.44 912.485C5338.68 903.722 5329.92 899.341 5321.15 899.341H5314.58L5308.01 903.722C5277.34 923.438 5235.72 934.391 5183.15 934.391C5130.57 934.391 5126.19 925.628 5106.47 905.913C5086.76 886.198 5073.62 857.72 5071.42 818.289L5323.34 813.908C5356.2 813.908 5373.73 792.001 5373.73 756.952L5375.92 752.571ZM5051.71 741.618C5058.28 697.805 5069.23 664.946 5088.95 640.85C5110.86 614.562 5139.33 601.419 5172.19 601.419C5233.53 601.419 5262.01 643.04 5259.82 726.283L5051.71 741.618Z" fill="white"/>
<path d="M5743.93 932.201C5728.6 901.533 5711.07 903.724 5700.12 908.105L5680.4 916.867C5673.83 919.058 5669.45 921.248 5662.88 923.439C5656.31 923.439 5649.74 927.82 5643.16 927.82C5636.59 927.82 5630.02 927.82 5621.26 927.82C5612.5 927.82 5608.11 927.82 5605.92 927.82C5605.92 927.82 5605.92 927.82 5603.73 923.439C5603.73 923.439 5599.35 910.295 5599.35 855.53V645.232H5612.5C5619.07 645.232 5625.64 645.232 5630.02 645.232C5636.59 645.232 5647.55 645.232 5662.88 645.232C5678.21 645.232 5697.93 640.851 5713.26 632.089C5737.36 618.945 5741.74 599.229 5741.74 586.086V572.942C5741.74 561.989 5739.55 551.036 5732.98 542.274L5726.41 531.321H5599.35V474.365C5599.35 465.602 5599.35 459.031 5601.54 450.268C5601.54 437.125 5597.16 423.981 5590.59 413.028C5581.83 399.884 5568.68 393.312 5555.54 393.312C5542.4 393.312 5538.02 393.313 5522.68 397.694H5505.16C5505.16 399.884 5505.16 417.409 5505.16 417.409C5502.97 439.315 5498.58 456.84 5494.2 472.174C5478.87 518.177 5456.96 544.464 5421.91 551.036C5415.34 551.036 5397.82 559.799 5397.82 588.276C5397.82 616.754 5402.2 610.182 5410.96 621.135C5419.72 632.089 5432.87 638.66 5448.2 638.66H5463.53V927.82C5463.53 973.823 5476.68 1006.68 5500.78 1026.4C5511.73 1035.16 5527.06 1041.73 5544.59 1043.92C5559.92 1046.11 5577.45 1048.3 5599.35 1048.3C5621.26 1048.3 5651.93 1041.73 5680.4 1026.4C5693.55 1019.83 5706.69 1011.06 5717.64 1002.3C5728.6 993.538 5737.36 982.585 5741.74 973.823C5746.12 965.06 5748.31 956.298 5748.31 947.536C5748.31 938.773 5748.31 932.201 5743.93 927.82V932.201Z" fill="white"/>
<path d="M931.175 965.059C926.794 962.869 920.222 958.487 913.65 956.297C907.078 956.297 902.697 951.916 896.125 951.916C891.744 951.916 887.363 951.916 885.172 949.725C880.791 949.725 878.6 943.153 878.6 934.391V618.944C878.6 590.466 874.219 568.56 867.647 553.225C861.076 542.272 854.504 533.51 843.551 526.938C832.598 520.366 819.454 518.176 799.739 518.176C780.023 518.176 760.308 524.748 736.211 535.701C725.258 540.082 714.305 546.654 705.543 553.225C694.59 559.797 688.018 568.56 681.446 575.131C672.684 586.085 670.493 599.228 674.874 612.372C681.446 634.278 696.78 640.85 709.924 640.85H714.305C720.877 638.659 727.449 636.468 734.021 636.468C740.592 636.468 742.783 636.468 742.783 636.468C742.783 636.468 747.164 640.85 747.164 662.756V927.819C747.164 943.153 744.974 947.534 742.783 949.725C742.783 949.725 736.211 951.916 734.021 951.916C731.83 951.916 729.639 951.916 723.068 951.916L707.733 947.534L696.78 960.678C690.208 969.441 685.827 982.584 685.827 997.918C685.827 1019.82 701.161 1048.3 769.07 1048.3H896.125C909.269 1048.3 913.65 1048.3 915.841 1048.3L928.984 1052.68L937.747 1041.73C944.319 1032.97 948.7 1019.82 948.7 1006.68C948.7 993.537 939.937 978.203 931.175 971.631V965.059Z" fill="white"/>
<path d="M758.121 483.104C769.074 487.485 780.027 489.676 790.98 489.676C815.076 489.676 836.982 480.913 854.507 465.579C872.032 448.054 880.795 428.339 880.795 404.242C880.795 380.146 872.032 358.239 856.698 342.905C841.364 327.571 821.648 318.809 795.361 318.809C769.074 318.809 749.358 327.571 731.833 342.905C714.309 360.43 703.355 380.146 703.355 404.242C703.355 428.339 712.118 450.245 727.452 465.579C736.215 472.151 744.977 478.723 755.93 483.104H758.121Z" fill="white"/>
<path d="M1535.78 965.039C1531.4 960.658 1524.83 958.467 1518.26 956.277C1513.88 956.277 1507.3 951.895 1500.73 951.895C1496.35 951.895 1491.97 951.895 1489.78 949.705C1489.78 949.705 1483.21 949.705 1483.21 934.371V667.117C1483.21 616.733 1467.87 577.302 1439.4 551.015C1426.25 537.871 1408.73 529.108 1391.2 524.727C1356.15 513.774 1316.72 513.774 1279.48 524.727C1242.24 535.68 1209.38 553.205 1176.52 575.111C1165.57 524.727 1132.71 515.965 1112.99 515.965C1093.28 515.965 1062.61 522.537 1038.51 537.871C1027.56 544.443 1018.8 551.014 1010.04 559.777C1001.27 568.539 994.702 575.111 990.321 581.683C983.749 590.445 981.559 599.208 981.559 607.97C981.559 616.733 981.559 625.495 992.512 636.448C994.702 640.829 999.083 643.02 1003.46 645.211C1010.04 649.592 1018.8 649.592 1027.56 645.211C1029.75 645.211 1034.13 643.02 1038.51 640.829C1038.51 640.829 1038.51 640.829 1042.9 640.829C1042.9 643.02 1047.28 649.592 1047.28 667.117V925.608C1047.28 940.942 1047.28 947.514 1047.28 949.705C1042.9 949.705 1038.51 949.705 1034.13 949.705L1018.8 945.324L1007.85 958.467C1001.27 967.23 996.893 980.373 996.893 997.898C996.893 1015.42 1001.27 1017.61 1005.66 1024.19C1016.61 1039.52 1038.51 1046.09 1071.37 1046.09H1198.43C1211.57 1046.09 1215.95 1046.09 1218.14 1046.09L1231.29 1050.47L1240.05 1039.52C1246.62 1030.76 1251 1017.61 1251 1004.47C1251 991.326 1242.24 975.992 1235.67 969.42C1231.29 965.039 1224.72 962.848 1218.14 960.658C1211.57 960.658 1207.19 958.467 1200.62 956.277C1196.24 956.277 1191.86 956.277 1189.67 954.086C1189.67 954.086 1183.09 954.086 1183.09 938.752V693.404C1196.24 680.26 1213.76 671.498 1231.29 662.735C1242.24 658.354 1255.38 653.973 1268.53 649.592C1294.82 643.02 1316.72 645.211 1329.86 647.401C1345.2 649.592 1351.77 667.117 1351.77 699.976V932.18C1351.77 945.323 1351.77 954.086 1351.77 956.277C1349.58 956.277 1343.01 956.277 1338.63 956.277L1323.29 951.895L1312.34 965.039C1305.77 973.801 1301.39 986.945 1301.39 1004.47C1301.39 1021.99 1305.77 1024.19 1310.15 1030.76C1321.1 1046.09 1343.01 1052.66 1375.87 1052.66H1502.92C1516.07 1052.66 1520.45 1052.66 1522.64 1052.66L1535.78 1057.04L1544.54 1046.09C1551.12 1037.33 1555.5 1024.19 1555.5 1011.04C1555.5 997.898 1546.73 982.564 1540.16 975.992L1535.78 965.039Z" fill="white"/>
<path d="M617.921 761.348L606.968 754.776C596.015 748.205 580.68 743.823 556.584 743.823C532.487 743.823 530.296 746.014 519.343 752.586L506.2 761.348V778.873C501.819 807.351 499.628 831.448 495.247 851.163C493.056 866.497 488.675 879.641 482.103 890.594C468.959 908.119 433.91 919.072 383.526 919.072H313.426C284.949 919.072 278.377 916.881 278.377 916.881C278.377 916.881 276.186 912.5 276.186 903.737V456.854C276.186 430.567 282.758 423.995 282.758 421.804C282.758 421.804 284.949 421.804 293.711 421.804C302.473 421.804 309.045 421.804 317.808 426.186L337.523 430.567L350.667 415.233C361.62 404.279 366.001 388.945 366.001 369.23C366.001 334.18 346.286 318.846 335.333 312.274C319.998 305.702 304.664 301.321 282.758 301.321H89.9847C63.6975 301.321 57.1257 301.321 57.1257 301.321L35.2196 292.559L19.8854 312.274C11.123 323.227 4.55113 340.752 4.55113 358.277C4.55113 375.802 8.93234 382.373 15.5042 393.326C26.4572 410.851 48.3632 417.423 61.5069 419.614L83.4129 426.186C89.9847 426.186 94.366 430.567 98.7472 430.567C100.938 430.567 103.128 430.567 103.128 439.329V892.784C103.128 925.644 94.366 925.644 83.4129 925.644C68.0787 925.644 59.3163 925.644 52.7444 923.453L30.8384 916.881L15.5042 934.406C6.74173 945.359 0.169922 962.884 0.169922 980.409C0.169922 997.934 4.55113 1004.51 11.1229 1015.46C26.4572 1035.17 52.7444 1046.13 85.6035 1046.13H585.062L596.015 1030.79C617.921 1000.12 628.874 947.55 628.874 873.069C628.874 798.588 624.492 800.779 617.921 774.492V761.348Z" fill="white"/>
<path d="M2105.35 932.215C2096.58 927.834 2090.01 925.644 2083.44 925.644C2076.87 925.644 2070.3 930.025 2063.73 932.215C2063.73 932.215 2059.34 932.215 2046.2 932.215C2046.2 932.215 2028.68 930.025 1984.86 866.497L1943.24 807.351C1932.29 792.017 1919.15 776.682 1908.19 763.539C1925.72 750.395 1945.43 737.252 1962.96 719.727C2033.06 658.39 2065.92 610.196 2065.92 570.765C2065.92 531.335 2054.96 509.429 1980.48 509.429C1906 509.429 1938.86 513.81 1919.15 522.572C1908.19 526.953 1899.43 531.335 1892.86 537.906C1879.71 548.859 1877.52 562.003 1877.52 568.575C1877.52 575.147 1879.71 586.1 1884.1 594.862L1890.67 605.815H1901.62C1906 605.815 1908.19 605.815 1910.38 605.815C1910.38 612.387 1901.62 623.34 1886.29 640.865C1877.52 651.818 1860 667.152 1833.71 684.677L1776.76 724.108V393.326C1776.76 362.658 1772.38 340.752 1765.8 327.608C1761.42 316.655 1752.66 307.893 1741.71 301.321C1730.75 294.749 1717.61 292.559 1697.89 292.559C1678.18 292.559 1658.46 299.13 1636.56 310.083C1625.6 314.465 1614.65 321.036 1608.08 327.608C1599.32 334.18 1592.75 342.943 1586.17 349.514C1577.41 362.658 1575.22 377.992 1586.17 391.136C1590.55 395.517 1594.94 399.898 1599.32 404.279C1605.89 408.661 1614.65 408.661 1625.6 406.47C1627.8 406.47 1629.99 406.47 1634.37 406.47C1640.94 406.47 1643.13 406.47 1645.32 406.47C1645.32 406.47 1645.32 410.851 1645.32 430.567V921.262C1645.32 936.597 1645.32 943.168 1645.32 945.359C1640.94 945.359 1636.56 945.359 1632.18 945.359L1616.84 940.978L1605.89 954.121C1599.32 962.884 1594.94 976.028 1594.94 993.552C1594.94 1011.08 1599.32 1013.27 1603.7 1019.84C1614.65 1035.17 1636.56 1041.75 1669.42 1041.75H1787.71C1800.85 1041.75 1805.23 1041.75 1807.42 1041.75L1820.57 1046.13L1829.33 1035.17C1835.9 1026.41 1840.28 1013.27 1840.28 1000.12C1840.28 986.981 1833.71 971.646 1824.95 965.074C1820.57 960.693 1814 958.503 1809.62 956.312C1805.23 956.312 1798.66 951.931 1792.09 951.931C1787.71 951.931 1785.52 951.931 1783.33 949.74C1778.95 949.74 1778.95 938.787 1778.95 930.025V800.779C1789.9 811.732 1807.42 833.638 1833.71 877.45L1866.57 934.406C1877.52 954.121 1890.67 973.837 1903.81 989.171C1916.96 1006.7 1932.29 1019.84 1947.62 1032.98C1965.15 1046.13 1987.05 1052.7 2013.34 1052.7C2039.63 1052.7 2063.73 1041.75 2087.82 1022.03C2096.58 1013.27 2103.16 1004.51 2109.73 993.552C2116.3 982.599 2118.49 973.837 2118.49 962.884C2118.49 949.74 2111.92 938.787 2103.16 932.215H2105.35Z" fill="white"/>
<path d="M3936.69 1245.47C3903.83 1245.47 3875.35 1243.28 3851.25 1236.7C3824.97 1232.32 3803.06 1223.56 3783.34 1210.42C3737.34 1184.13 3713.25 1144.7 3713.25 1094.31C3713.25 1043.93 3735.15 1013.26 3774.58 980.403C3778.96 976.022 3783.34 973.831 3789.92 969.45C3783.34 956.306 3778.96 943.163 3778.96 927.829C3778.96 899.351 3787.73 875.254 3807.44 853.348C3772.39 831.442 3750.49 800.773 3737.34 761.343C3732.96 743.818 3728.58 726.293 3728.58 704.387C3728.58 682.481 3732.96 662.765 3737.34 645.241C3743.91 627.716 3752.68 610.191 3763.63 594.857C3774.58 579.522 3787.73 568.569 3803.06 557.616C3818.39 546.663 3833.73 537.901 3849.06 531.329C3881.92 518.185 3914.78 511.614 3949.83 511.614C3984.88 511.614 4028.69 520.376 4059.36 535.71C4059.36 524.757 4059.36 518.185 4054.98 513.804L4044.03 498.47L4054.98 485.326C4070.31 467.802 4090.03 459.039 4118.51 459.039C4146.99 459.039 4151.37 463.42 4162.32 474.373C4179.84 489.708 4188.61 507.232 4188.61 524.757C4188.61 542.282 4186.42 551.045 4182.04 561.998C4177.65 572.951 4173.27 581.713 4166.7 590.475C4157.94 601.428 4149.18 612.381 4138.22 621.144C4144.79 640.859 4149.18 660.575 4149.18 682.481C4149.18 704.387 4142.6 739.437 4129.46 765.724C4116.32 789.82 4098.79 811.727 4076.89 829.251C4033.07 864.301 3980.5 881.826 3916.97 881.826C3853.44 881.826 3906.02 881.826 3897.26 881.826C3897.26 884.016 3897.26 886.207 3897.26 886.207C3897.26 890.588 3897.26 890.588 3897.26 890.588C3899.45 892.779 3903.83 894.97 3910.4 897.16C3921.35 899.351 3934.5 901.541 3949.83 901.541H3982.69C4076.89 901.541 4140.41 925.638 4171.08 973.831C4184.23 993.547 4190.8 1015.45 4190.8 1041.74C4190.8 1068.03 4186.42 1089.93 4177.65 1109.65C4168.89 1129.36 4157.94 1146.89 4142.6 1160.03C4129.46 1173.18 4111.94 1186.32 4094.41 1197.27C4076.89 1208.23 4057.17 1214.8 4037.46 1221.37C4000.21 1234.51 3962.97 1241.09 3930.12 1241.09L3936.69 1245.47ZM3879.73 1026.41C3857.83 1043.93 3844.68 1061.46 3844.68 1081.17C3844.68 1100.89 3849.06 1107.46 3875.35 1118.41C3897.26 1127.17 3923.54 1133.75 3954.21 1133.75C3984.88 1133.75 4011.17 1129.36 4035.26 1118.41C4070.31 1105.27 4074.7 1085.55 4074.7 1070.22C4074.7 1054.88 4074.7 1028.6 3993.64 1028.6H3958.59C3925.73 1028.6 3899.45 1028.6 3877.54 1022.02L3879.73 1026.41ZM3551.14 1048.31L3538 1043.93C3538 1043.93 3531.43 1043.93 3518.28 1043.93H3384.65C3351.8 1043.93 3329.89 1037.36 3318.94 1022.02C3312.36 1015.45 3310.17 1006.69 3310.17 995.737C3310.17 978.213 3314.56 967.26 3321.13 956.306L3332.08 943.163L3347.41 947.544C3353.99 947.544 3358.37 947.544 3360.56 947.544C3360.56 945.353 3360.56 938.782 3360.56 923.447V664.956C3360.56 647.431 3358.37 640.859 3356.18 638.669C3353.99 638.669 3351.8 638.669 3351.8 638.669C3347.41 640.859 3343.03 643.05 3340.84 643.05C3332.08 645.241 3323.32 645.241 3316.75 643.05C3312.36 640.859 3310.17 638.669 3305.79 634.287C3297.03 625.525 3294.84 614.572 3294.84 605.81C3294.84 597.047 3297.03 588.285 3303.6 579.522C3307.98 572.951 3314.56 564.188 3323.32 557.616C3332.08 551.044 3340.84 542.282 3351.8 535.71C3375.89 520.376 3402.18 513.804 3426.28 513.804C3450.37 513.804 3478.85 520.376 3489.8 568.569C3520.47 546.663 3551.14 531.329 3584 520.376C3616.86 509.423 3645.34 511.614 3665.05 520.376C3676.01 524.757 3684.77 531.329 3691.34 540.091C3702.29 555.426 3708.86 572.951 3708.86 594.857C3708.86 616.763 3708.86 627.716 3706.67 638.669C3706.67 649.622 3702.29 658.384 3700.1 667.147C3693.53 686.862 3689.15 700.006 3680.39 706.577C3669.43 717.53 3654.1 724.102 3634.38 724.102C3603.72 724.102 3592.76 706.577 3592.76 691.243C3592.76 654.003 3592.76 645.241 3590.57 643.05C3590.57 638.669 3588.38 636.478 3588.38 636.478C3577.43 636.478 3568.67 636.478 3559.9 640.859C3551.14 643.05 3542.38 647.431 3535.81 649.622C3520.47 656.194 3509.52 664.956 3498.57 675.909V930.019C3498.57 943.163 3505.14 945.353 3509.52 945.353C3513.9 945.353 3518.28 947.544 3524.85 947.544C3531.43 947.544 3538 949.735 3544.57 951.925C3551.14 951.925 3557.71 956.307 3562.09 960.688C3570.86 967.26 3579.62 978.213 3579.62 995.737C3579.62 1013.26 3575.24 1022.02 3568.67 1030.79L3559.9 1041.74L3551.14 1048.31ZM3936.69 616.763C3890.68 616.763 3877.54 638.669 3870.97 656.194C3866.59 664.956 3866.59 678.1 3866.59 693.434C3866.59 708.768 3868.78 721.912 3873.16 735.055C3877.54 746.008 3881.92 754.771 3890.68 763.533C3897.26 770.105 3906.02 776.677 3914.78 778.867C3934.5 785.439 3958.59 785.439 3978.31 778.867C3987.07 776.677 3995.83 772.296 4002.41 765.724C4015.55 754.771 4024.31 737.246 4024.31 713.149C4024.31 689.053 4017.74 662.765 4002.41 643.05C3987.07 623.334 3967.36 614.572 3938.88 614.572L3936.69 616.763Z" fill="white"/>
<path d="M2276.21 877.416C2232.39 824.842 2214.87 756.933 2230.2 682.452C2247.73 586.066 2317.83 487.489 2420.79 413.008C2473.36 373.577 2532.51 345.099 2596.03 323.193C2624.51 314.431 2650.8 305.668 2679.28 301.287L2885.19 174.232C2856.72 169.851 2826.05 167.66 2793.19 167.66C2466.79 167.66 2160.1 393.293 2109.72 660.546C2074.67 840.176 2168.87 991.328 2330.97 1065.81L2449.26 978.184C2376.97 960.659 2317.83 925.61 2278.4 877.416" fill="white"/>
<path d="M2876.44 789.811L2409.85 518.176L2396.7 590.466C2396.7 597.038 2394.51 603.609 2394.51 607.991C2394.51 610.181 2394.51 614.562 2394.51 616.753C2394.51 634.278 2398.89 653.993 2407.65 669.327C2418.61 686.852 2431.75 704.377 2451.47 715.33L2670.53 842.385L2510.61 962.869L2482.14 984.775L2359.46 1076.78L2335.36 1094.3L2131.64 1247.65C2122.88 1254.22 2122.88 1267.36 2131.64 1276.13C2138.21 1282.7 2146.97 1282.7 2153.54 1278.32L2409.85 1120.59L2442.7 1100.88L2624.52 989.156L2679.29 956.297L2883.02 829.242C2889.59 824.861 2893.97 818.289 2893.97 811.717C2893.97 802.954 2891.78 794.192 2883.02 787.62" fill="white"/>
<path d="M3088.93 413.033C3132.74 472.18 3145.89 546.66 3121.79 627.713C3095.5 721.909 3023.21 813.914 2920.26 881.823C2847.97 930.016 2764.72 965.066 2681.48 980.4L2475.56 1107.46C2504.04 1111.84 2534.71 1114.03 2565.38 1114.03C2865.49 1114.03 3165.6 914.682 3240.08 660.572C3294.85 467.799 3207.22 296.931 3029.79 215.879L2911.49 303.503C2988.16 323.219 3049.5 360.459 3088.93 410.843" fill="#010157"/>
<path d="M3224.73 5.57217C3218.16 -0.999647 3209.4 -0.999655 3202.83 3.38156L2946.53 161.105L2913.67 180.821L2731.85 292.541L2677.08 325.401L2471.16 452.456C2471.16 452.456 2466.78 454.646 2466.78 456.837C2466.78 456.837 2464.59 459.027 2462.4 461.218C2462.4 461.218 2462.4 465.599 2462.4 467.79C2462.4 474.362 2462.4 483.124 2466.78 487.505C2466.78 489.696 2471.16 491.887 2473.36 494.077L2939.95 765.712L2953.1 693.422C2953.1 686.85 2955.29 680.279 2955.29 675.897C2955.29 651.801 2950.91 627.704 2937.76 605.798C2933.38 599.226 2926.81 590.464 2920.24 583.892C2913.67 577.32 2907.1 572.939 2898.33 566.367L2679.27 439.312L2839.19 318.829L2867.66 296.923L2918.05 259.682L2992.53 204.917L3016.63 187.392L3220.35 34.05C3229.11 27.4782 3229.11 14.3346 3220.35 5.57217" fill="#010157"/>
</svg>
